HIERARCHY
ROOT Hips
{
	OFFSET 0.00000 0.00000 0.00000
	CHANNELS 6 Xposition Yposition Zposition Zrotation Yrotation Xrotation 
	JOINT LHipJoint
	{
		OFFSET 0 0 0
		CHANNELS 3 Zrotation Yrotation Xrotation
		JOINT LeftUpLeg
		{
			OFFSET 1.92384 -1.64427 0.83032
			CHANNELS 3 Zrotation Yrotation Xrotation
			JOINT LeftLeg
			{
				OFFSET 2.52872 -6.94761 0.00000
				CHANNELS 3 Zrotation Yrotation Xrotation
				JOINT LeftFoot
				{
					OFFSET 2.51827 -6.91890 0.00000
					CHANNELS 3 Zrotation Yrotation Xrotation
					JOINT LeftToeBase
					{
						OFFSET 0.22757 -0.62524 2.06528
						CHANNELS 3 Zrotation Yrotation Xrotation
						End Site
						{
							OFFSET 0.00000 -0.00000 1.08218
						}
					}
				}
			}
		}
	}
	JOINT RHipJoint
	{
		OFFSET 0 0 0
		CHANNELS 3 Zrotation Yrotation Xrotation
		JOINT RightUpLeg
		{
			OFFSET -2.09517 -1.64427 0.83032
			CHANNELS 3 Zrotation Yrotation Xrotation
			JOINT RightLeg
			{
				OFFSET -2.55173 -7.01082 0.00000
				CHANNELS 3 Zrotation Yrotation Xrotation
				JOINT RightFoot
				{
					OFFSET -2.50265 -6.87598 0.00000
					CHANNELS 3 Zrotation Yrotation Xrotation
					JOINT RightToeBase
					{
						OFFSET -0.22612 -0.62126 1.98677
						CHANNELS 3 Zrotation Yrotation Xrotation
						End Site
						{
							OFFSET -0.00000 -0.00000 1.04433
						}
					}
				}
			}
		}
	}
	JOINT LowerBack
	{
		OFFSET 0 0 0
		CHANNELS 3 Zrotation Yrotation Xrotation
		JOINT Spine
		{
			OFFSET 0.02839 1.68926 0.31690
			CHANNELS 3 Zrotation Yrotation Xrotation
			JOINT Spine1
			{
				OFFSET -0.01522 1.70183 0.21192
				CHANNELS 3 Zrotation Yrotation Xrotation
				JOINT Neck
				{
					OFFSET 0 0 0
					CHANNELS 3 Zrotation Yrotation Xrotation
					JOINT Neck1
					{
						OFFSET -0.04523 1.88988 0.10630
						CHANNELS 3 Zrotation Yrotation Xrotation
						JOINT Head
						{
							OFFSET 0.05172 1.78070 -0.56858
							CHANNELS 3 Zrotation Yrotation Xrotation
							End Site
							{
								OFFSET 0.01532 1.90392 -0.20434
							}
						}
					}
				}
				JOINT LeftShoulder
				{
					OFFSET 0 0 0
					CHANNELS 3 Zrotation Yrotation Xrotation
					JOINT LeftArm
					{
						OFFSET 3.25522 0.75486 0.22086
						CHANNELS 3 Zrotation Yrotation Xrotation
						JOINT LeftForeArm
						{
							OFFSET 4.85645 -0.00000 0.00000
							CHANNELS 3 Zrotation Yrotation Xrotation
							JOINT LeftHand
							{
								OFFSET 2.79874 -0.00000 0.00000
								CHANNELS 3 Zrotation Yrotation Xrotation
								JOINT LeftFingerBase
								{
									OFFSET 0 0 0
									CHANNELS 3 Zrotation Yrotation Xrotation
									JOINT LeftHandIndex1
									{
										OFFSET 0.57340 -0.00000 0.00000
										CHANNELS 3 Zrotation Yrotation Xrotation
										End Site
										{
											OFFSET 0.46229 -0.00000 0.00000
										}
									}
								}
								JOINT LThumb
								{
									OFFSET 0 0 0
									CHANNELS 3 Zrotation Yrotation Xrotation
									End Site
									{
										OFFSET 0.46935 -0.00000 0.46935
									}
								}
							}
						}
					}
				}
				JOINT RightShoulder
				{
					OFFSET 0 0 0
					CHANNELS 3 Zrotation Yrotation Xrotation
					JOINT RightArm
					{
						OFFSET -3.29079 0.52751 0.36356
						CHANNELS 3 Zrotation Yrotation Xrotation
						JOINT RightForeArm
						{
							OFFSET -4.67018 -0.00000 0.00000
							CHANNELS 3 Zrotation Yrotation Xrotation
							JOINT RightHand
							{
								OFFSET -2.65534 -0.00000 0.00000
								CHANNELS 3 Zrotation Yrotation Xrotation
								JOINT RightFingerBase
								{
									OFFSET 0 0 0
									CHANNELS 3 Zrotation Yrotation Xrotation
									JOINT RightHandIndex1
									{
										OFFSET -0.59407 -0.00000 0.00000
										CHANNELS 3 Zrotation Yrotation Xrotation
										End Site
										{
											OFFSET -0.47895 -0.00000 0.00000
										}
									}
								}
								JOINT RThumb
								{
									OFFSET 0 0 0
									CHANNELS 3 Zrotation Yrotation Xrotation
									End Site
									{
										OFFSET -0.48627 -0.00000 0.48627
									}
								}
							}
						}
					}
				}
			}
		}
	}
}
MOTION
Frames: 15
Frame Time: 0.0769231
0.00 0.00 0.00 0 0 0 0 0 0 -21 0 0 0 0 0 0 0 0 0 0 0 0 0 0 21 0 0 0 0 0 0 0 0 0 0 0 0 0 0 0 0 0 0 0 0 0 0 -16 0 0 21 0 0 11 0 0 0 -8 0 0 0 0 0 0 0 0 0 0 0 0 0 0 0 0 0 0 0 0 8 0 0 0 0 0 0 0 0 0 0 0 0 0 0 0 0 0
0.00 0.00 0.00 -2.6151 20.3076 28.6884 0.0000 0.0000 0.0000 -5.7468 -23.0262 -41.6396 2.6034 10.0236 29.0532 0.1860 6.8223 -13.3374 1.1635 -6.8475 -19.2642 0.0000 0.0000 0.0000 21.5301 17.8053 -35.2494 -1.3441 -7.3402 20.7273 -0.2874 -4.6841 -12.9473 -0.0122 -0.7127 1.9587 4.1988 1.8871 -19.5127 -1.8215 2.1669 -15.5453 -4.0310 0.7676 -5.8826 20.2577 14.5360 -3.9622 1.3872 17.9530 27.5879 -0.3750 10.5008 11.5300 0.0000 0.0000 0.0000 -83.1128 16.6149 37.0465 19.2097 -29.6784 -5.1343 -0.0000 -0.0000 2.0507 13.5370 24.4533 5.6915 -7.1250 0.0000 -0.0000 -16.7407 54.2585 -3.8920 0.0000 0.0000 0.0000 83.8208 -20.9247 29.5475 -18.8999 29.2941 -4.9818 0.0000 0.0000 8.4542 -17.3475 -13.9613 4.3100 7.1250 -0.0000 -0.0000 9.3079 -44.3771 0.1444
0.00 0.00 0.00 -1.0061 32.8048 29.5083 0.0000 0.0000 0.0000 -6.5623 -32.1339 -33.9492 1.2658 7.1313 20.1050 0.1277 4.4214 -9.8146 1.2353 -7.0482 -19.8584 0.0000 0.0000 0.0000 18.4305 19.7552 -27.4124 -0.8471 -5.8703 16.4085 0.4182 -19.9404 -24.7194 -0.1169 -2.2046 6.0714 0.4447 7.0695 -21.6720 -6.6687 9.7601 -16.0046 -5.7058 4.9066 -4.3779 5.9902 4.4686 -13.5065 9.6409 2.4685 31.0772 3.0992 3.3136 12.6116 -0.0000 -0.0000 0.0000 -49.0384 32.5134 -2.5873 21.8113 -32.7631 -6.4834 -0.0000 0.0000 -4.8681 11.6733 23.7450 4.7557 -7.1250 0.0000 -0.0000 -18.2082 53.2389 -3.7892 -0.0000 -0.0000 0.0000 74.8482 34.7832 88.3071 -33.3927 43.6297 -13.6923 0.0000 0.0000 2.4241 -11.5444 -11.3474 2.3014 7.1250 -0.0000 -0.0000 13.8024 -41.1551 1.3375
0.00 0.00 0.00 -0.6593 42.6586 29.8826 0.0000 0.0000 0.0000 -2.7484 -36.8930 -35.8295 1.4458 7.6012 21.5092 0.2709 0.2418 -9.9212 1.3575 -7.3750 -20.8313 0.0000 0.0000 0.0000 21.6205 16.2459 -27.1858 -0.8383 -5.8405 16.3224 0.2371 -22.2450 -29.7416 -0.3386 -3.7393 10.3443 -1.1357 7.6151 -22.7760 -6.9800 10.9517 -16.0763 -4.8177 5.7188 -4.0232 0.4913 -0.5297 -15.8333 13.2906 -4.7052 32.8225 4.6710 0.1873 14.3321 -0.0000 0.0000 0.0000 -40.0169 34.0462 -23.8653 18.7252 -29.0758 -4.8966 -0.0000 0.0000 -7.0766 15.9561 25.4984 7.0168 -7.1250 0.0000 -0.0000 -14.8537 55.7418 -3.9783 -0.0000 0.0000 0.0000 102.9563 53.7319 128.5006 -54.7927 54.7546 -30.0466 0.0000 0.0000 1.3941 -15.8420 -14.0950 3.9531 7.1250 -0.0000 -0.0000 10.7004 -44.3409 0.1762
0.00 0.00 0.00 -0.7087 49.7149 29.9627 0.0000 0.0000 0.0000 -0.2700 -39.3130 -37.8269 1.6660 8.1327 23.1178 0.3274 -3.7699 -10.1713 1.3477 -7.3496 -20.7553 0.0000 0.0000 0.0000 24.1089 13.8382 -26.9584 -0.8095 -5.7419 16.0373 -0.1101 -23.3879 -33.6055 -0.5754 -4.8578 13.5033 -2.4762 7.3420 -23.3863 -6.5564 10.9612 -15.3207 -3.4824 5.8744 -3.1866 -3.7334 -3.8690 -17.3910 16.2793 -9.3693 32.1761 5.9467 -1.9074 15.3282 0.0000 -0.0000 0.0000 -36.6163 36.9111 -44.5836 16.0343 -25.5671 -3.6607 -0.0000 0.0000 -11.8477 25.5436 29.7973 13.3597 -7.1250 0.0000 -0.0000 -6.7439 62.2583 -2.8365 0.0000 -0.0000 0.0000 124.4830 52.1203 153.4998 -82.1985 59.7688 -53.2490 0.0000 0.0000 5.0024 -15.4471 -13.4752 3.6843 7.1250 -0.0000 -0.0000 10.9002 -43.6694 0.3625
0.00 0.00 0.00 -1.1905 24.2924 28.8963 0.0000 0.0000 0.0000 -9.0884 -29.5726 -32.9233 1.4218 7.5406 21.3273 -0.1426 9.8176 -11.2480 1.0490 -6.5130 -18.2804 0.0000 0.0000 0.0000 16.2073 22.4742 -28.5195 -1.1059 -6.6816 18.7753 0.1684 -16.4402 -21.6315 -0.0047 -0.4432 1.2179 -0.3192 3.1226 -15.9147 -2.0799 4.4723 -15.1730 -1.6558 2.3472 -7.3379 13.7799 10.0802 -11.7838 1.3565 11.0939 26.9459 -0.1888 6.6831 11.5231 0.0000 0.0000 0.0000 -39.3882 5.1455 40.0121 31.5026 -42.1470 -12.4058 -0.0000 0.0000 -2.6654 13.1232 23.3797 5.2855 -7.1250 0.0000 -0.0000 -16.6067 53.1467 -3.4024 0.0000 0.0000 0.0000 57.7862 9.8408 44.8491 -13.6261 22.1977 -2.6852 0.0000 0.0000 17.0199 -14.0810 -13.0202 3.2344 7.1250 -0.0000 -0.0000 12.0025 -43.0657 0.5819
0.00 0.00 0.00 -1.6187 19.6726 29.2435 0.0000 0.0000 0.0000 -10.3385 -27.6987 -32.8911 1.4185 7.5321 21.3016 -0.2634 11.7045 -12.2031 0.8840 -5.9936 -16.7658 0.0000 0.0000 0.0000 14.9027 23.7133 -29.0228 -1.0601 -6.5462 18.3778 0.1083 -14.6398 -19.5696 -0.0022 0.3017 -0.8289 0.0981 2.0795 -15.7820 -0.7349 2.9954 -14.4659 -0.5649 1.5943 -6.6800 16.1552 12.6901 -9.7297 -2.2330 15.5215 24.4051 -1.2665 8.4281 10.9939 -0.0000 -0.0000 0.0000 -36.0375 9.1356 69.4997 75.1985 -59.1558 -47.2179 -0.0000 0.0000 -2.3672 5.0971 20.1846 1.7628 -7.1250 0.0000 -0.0000 -22.6489 48.8449 -2.2538 -0.0000 -0.0000 0.0000 45.6926 -10.8387 60.3707 -34.1766 44.2151 -14.2361 0.0000 -0.0000 -4.4078 -6.0082 -15.1473 1.5753 7.1250 -0.0000 -0.0000 19.7622 -44.2620 0.3753
0.00 0.00 0.00 -1.5760 17.3319 29.4740 0.0000 0.0000 0.0000 -11.2694 -26.7768 -32.5160 1.3563 7.3721 20.8225 -0.3474 12.7374 -12.5674 0.8070 -5.7330 -16.0116 0.0000 0.0000 0.0000 13.9772 24.4447 -29.3377 -1.0694 -6.5739 18.4591 0.0602 -13.7500 -18.8245 -0.0094 0.6245 -1.7162 0.8282 1.5454 -15.6548 -0.1594 2.1833 -14.1568 -0.4321 1.1297 -6.3986 17.3911 13.9385 -8.6190 -4.4605 17.8578 24.1227 -1.8725 9.3669 11.2678 -0.0000 -0.0000 0.0000 -37.9753 13.1268 80.1968 97.5408 -59.7840 -66.5258 -0.0000 0.0000 -8.7773 -0.3777 21.0768 -0.1358 -7.1250 0.0000 -0.0000 -28.0299 48.8589 -2.8755 -0.0000 -0.0000 0.0000 41.4849 -22.8529 68.7165 -60.4202 56.4209 -34.6909 0.0000 -0.0000 -17.4507 1.5367 -12.8993 -0.3431 7.1250 -0.0000 -0.0000 25.3616 -41.4015 2.4276
0.00 0.00 0.00 -1.4502 15.3371 29.6364 0.0000 0.0000 0.0000 -11.9920 -26.0908 -32.2230 1.3141 7.2611 20.4911 -0.4376 13.7477 -12.9124 0.7580 -5.5602 -15.5136 0.0000 0.0000 0.0000 13.1364 25.2190 -29.6608 -1.0996 -6.6631 18.7211 0.0019 -12.9178 -18.3444 -0.0156 0.8074 -2.2191 1.7602 1.3093 -15.5017 -0.3385 1.7343 -13.9737 -1.1849 0.7987 -6.2492 18.7533 14.8758 -7.8057 -5.1179 19.2957 24.1787 -2.0534 10.0725 11.5454 0.0000 0.0000 0.0000 -40.8212 18.4546 85.2581 104.3681 -59.2054 -72.4100 -0.0000 0.0000 -14.8380 -1.0604 24.2744 -0.4360 -7.1250 0.0000 -0.0000 -30.5058 51.5460 -5.3356 0.0000 0.0000 0.0000 43.3227 -33.1118 74.3929 -86.2747 59.9475 -56.7744 0.0000 -0.0000 -23.6490 2.7362 -11.4766 -0.5448 7.1250 -0.0000 -0.0000 25.8231 -40.0038 3.4493
0.00 0.00 0.00 -1.1068 18.2986 29.7530 0.0000 0.0000 0.0000 -11.3428 -27.1054 -32.5065 1.2515 7.0926 19.9900 -0.3616 12.6227 -11.9880 0.8289 -5.8084 -16.2294 0.0000 0.0000 0.0000 13.5131 24.1721 -29.5812 -1.0714 -6.5800 18.4768 -0.0419 -13.3956 -19.5328 -0.0022 0.3018 -0.8292 1.3627 1.5987 -17.2401 -0.9878 2.1628 -14.1160 -1.5640 1.0461 -5.4764 19.5024 14.3605 -3.8817 -2.5006 18.6308 24.5238 -1.6649 10.2373 10.6870 0.0000 -0.0000 0.0000 -53.0411 22.7136 84.3963 87.1873 -59.9701 -57.5644 -0.0000 0.0000 -20.3842 13.2486 26.1829 5.9310 -7.1250 0.0000 -0.0000 -17.9840 55.8622 -4.9063 0.0000 -0.0000 0.0000 58.3570 -38.3554 74.0022 -99.1450 59.6816 -67.9113 0.0000 -0.0000 -27.8258 -17.7833 -27.4900 8.4216 7.1250 -0.0000 -0.0000 14.0649 -58.0777 -4.5596
0.00 0.00 0.00 -0.7911 19.5382 31.6601 0.0000 0.0000 0.0000 -10.3511 -27.9354 -35.0734 1.2269 7.0250 19.7894 -0.3145 11.7555 -11.1170 0.8564 -5.9015 -16.4989 0.0000 0.0000 0.0000 12.5058 23.8948 -32.5518 -1.1794 -6.8925 19.3972 -0.0489 -13.6015 -19.8932 -0.0015 0.2475 -0.6799 1.6626 1.8209 -18.7498 -1.5015 2.4276 -14.7124 -2.2178 1.1470 -5.3442 19.5090 13.8225 -3.3434 -2.3843 17.9911 24.8800 -1.7672 9.9912 10.6358 0.0000 -0.0000 0.0000 -56.6598 19.5366 85.7288 64.6463 -57.4260 -38.2328 -0.0000 0.0000 -17.2189 23.2469 30.9537 12.4592 -7.1250 0.0000 -0.0000 -10.1722 62.8341 -4.4298 0.0000 -0.0000 0.0000 62.5151 -35.2442 73.1781 -78.1032 59.4584 -49.7158 0.0000 -0.0000 -29.2763 -22.9228 -32.8000 12.9027 7.1250 -0.0000 -0.0000 11.9145 -64.5847 -5.6864
0.00 0.00 0.00 0.5908 19.4211 41.2341 0.0000 0.0000 0.0000 -5.5241 -30.4851 -47.0203 1.1688 6.8627 19.3091 -0.4153 12.1282 -9.0960 0.8529 -5.8900 -16.4655 0.0000 0.0000 0.0000 6.1021 24.7672 -46.8099 -1.7010 -8.2134 23.3642 -0.1449 -12.7708 -19.8707 -0.0056 0.4836 -1.3287 0.1821 0.0626 -26.2458 -1.4016 0.4519 -17.9663 -1.5664 0.3084 -5.6425 7.0687 5.3055 -13.8367 1.5000 5.6614 36.4167 0.3892 3.7257 15.2507 0.0000 0.0000 0.0000 -42.9827 21.2206 54.3164 39.9440 -48.0367 -18.3976 -0.0000 0.0000 -12.5101 -12.0790 22.7484 -4.7304 -7.1250 0.0000 -0.0000 -39.1063 48.5472 -3.9936 0.0000 0.0000 0.0000 56.2026 -28.6904 59.4225 -47.8980 52.1118 -24.5052 0.0000 0.0000 1.7740 3.4741 -8.1085 -0.4906 7.1250 -0.0000 -0.0000 25.2805 -36.8968 5.4766
0.00 0.00 0.00 0.6271 19.2338 39.9543 0.0000 0.0000 0.0000 -6.5329 -30.2287 -45.0659 1.1272 6.7435 18.9577 -0.4298 12.2880 -9.0961 0.8669 -5.9367 -16.6008 0.0000 0.0000 0.0000 7.1244 24.0738 -45.1704 -1.6664 -8.1337 23.1209 -0.1804 -12.1347 -19.4653 -0.0105 0.6604 -1.8148 -1.5154 -1.0648 -27.5240 -0.6040 -0.6248 -18.2981 0.0369 -0.0224 -5.4675 1.5970 1.3443 -12.5194 2.6365 0.9103 38.5532 1.0385 1.1167 15.7176 0.0000 0.0000 0.0000 -24.6845 0.9264 14.0571 19.3005 -29.7904 -5.1793 -0.0000 0.0000 -10.4683 -6.1468 27.3717 -2.8346 -7.1250 0.0000 -0.0000 -37.2571 53.2614 -8.5031 0.0000 0.0000 0.0000 35.9667 -8.0651 23.2834 -16.8255 26.6272 -4.0088 0.0000 0.0000 9.1877 7.0922 -12.6170 -1.5567 7.1250 -0.0000 -0.0000 29.7557 -40.6058 3.5934
0.00 0.00 0.00 0.4773 19.5085 38.7856 0.0000 0.0000 0.0000 -7.3001 -29.8461 -43.9256 1.1695 6.8646 19.3150 -0.3783 11.7481 -9.2100 0.8869 -6.0032 -16.7937 0.0000 0.0000 0.0000 7.8600 23.8325 -43.7255 -1.6422 -8.0772 22.9487 -0.1664 -12.2886 -19.5001 -0.0122 0.7126 -1.9583 -1.6546 -1.8431 -27.8842 0.4380 -1.5918 -18.3831 1.0474 -0.4388 -5.3665 -0.9026 0.0028 -12.2148 1.0938 0.2113 40.8046 0.7297 0.2266 16.8312 -0.0000 0.0000 0.0000 -15.5361 -12.8815 -7.2048 31.4079 -42.0700 -12.3422 -0.0000 0.0000 -31.3174 15.8076 36.6921 9.6016 -7.1250 0.0000 -0.0000 -24.1055 66.2302 -12.6608 -0.0000 0.0000 0.0000 22.5356 9.7773 -0.9557 -21.5938 32.5150 -6.3661 0.0000 -0.0000 -9.9027 -10.0372 -22.2218 3.8296 7.1250 -0.0000 -0.0000 19.0233 -51.5100 -3.1457
0.00 0.00 0.00 0.2962 19.1865 37.9510 0.0000 0.0000 0.0000 -7.9507 -29.3094 -43.1901 1.1876 6.9156 19.4655 -0.3538 11.4959 -9.2958 0.8756 -5.9657 -16.6850 0.0000 0.0000 0.0000 8.0323 24.0794 -42.7345 -1.5945 -7.9649 22.6075 -0.1321 -12.5190 -19.4034 -0.0075 0.5588 -1.5354 -0.9515 -2.0088 -27.7766 0.7509 -1.9624 -18.8678 0.9254 -0.6742 -6.0046 -2.3721 -0.8221 -12.1996 0.0186 -0.1917 41.8109 0.4394 -0.3431 17.4153 0.0000 0.0000 0.0000 -12.9714 -24.2228 -1.3345 74.4395 -59.0650 -46.5665 -0.0000 0.0000 -29.2641 11.5124 29.9734 5.8102 -7.1250 0.0000 -0.0000 -22.3039 59.0441 -7.8997 0.0000 0.0000 0.0000 19.1820 22.1574 0.4959 -58.6742 55.9462 -33.2403 0.0000 -0.0000 -29.7568 -13.1709 -26.1352 5.8853 7.1250 -0.0000 -0.0000 18.0345 -55.8012 -4.8937
